<svg id="Layer_5" enable-background="new 0 0 64 64" height="512" viewBox="0 0 64 64" width="512" xmlns="http://www.w3.org/2000/svg"><g><path d="m61.497 21.705-.618-.618c1.386-2.118 2.121-4.548 2.121-7.087 0-7.168-5.832-13-13-13-2.539 0-4.969.735-7.086 2.122l-.619-.619c-1.667-1.669-4.248-1.986-6.271-.772l-.767.46c-3.389-1.489-5.795-1.584-7.135-.244-1.404 1.404-1.457 3.741-.34 6.711-.175.115-.352.23-.496.374-1.644 1.644-1.706 4.466-.173 7.947 1.5 3.406 4.438 7.351 8.497 11.41s8.004 6.998 11.41 8.497c1.676.738 3.199 1.106 4.512 1.106 1.413 0 2.583-.427 3.435-1.279.141-.141.253-.315.367-.486 1.363.514 2.594.783 3.659.783 1.261 0 2.296-.37 3.059-1.133 1.339-1.339 1.245-3.746-.244-7.135l.46-.767c1.214-2.023.897-4.602-.771-6.27zm-11.497-18.705c6.065 0 11 4.935 11 11 0 2.005-.545 3.929-1.573 5.635l-15.062-15.062c1.705-1.028 3.63-1.573 5.635-1.573zm-12.947.446c1.236-.742 2.81-.546 3.828.471l19.201 19.201c1.019 1.019 1.212 2.592.471 3.828l-2.349 3.915c-1.588-.483-6.44-2.511-14.498-10.568-8.062-8.063-10.084-12.91-10.567-14.498zm10.774 31.61c-3.181-1.4-6.916-4.195-10.802-8.081s-6.68-7.621-8.081-10.802c-1.119-2.542-1.231-4.564-.335-5.607 1.963 3.948 5.665 8.773 10.858 13.966 5.196 5.196 10.02 8.893 13.97 10.855-1.042.899-3.067.787-5.61-.331zm12.812-.593c-1.747 1.749-9.03-.618-19.757-11.345-10.726-10.726-13.091-18.01-11.345-19.757.536-.535 1.822-.478 3.569.121l-2.162 1.298.061.628c.022.227.657 5.667 11.289 16.299 10.631 10.632 16.072 11.267 16.299 11.289l.628.061 1.297-2.163c.598 1.748.656 3.034.121 3.569z"/><path d="m44 17c0 1.654 1.346 3 3 3s3-1.346 3-3-1.346-3-3-3-3 1.346-3 3zm3-1c.551 0 1 .449 1 1s-.449 1-1 1-1-.449-1-1 .449-1 1-1z"/><path d="m53 25c1.654 0 3-1.346 3-3s-1.346-3-3-3-3 1.346-3 3 1.346 3 3 3zm0-4c.551 0 1 .449 1 1s-.449 1-1 1-1-.449-1-1 .449-1 1-1z"/><path d="m42 14c1.654 0 3-1.346 3-3s-1.346-3-3-3-3 1.346-3 3 1.346 3 3 3zm0-4c.551 0 1 .449 1 1s-.449 1-1 1-1-.449-1-1 .449-1 1-1z"/><path d="m5.82 26h22.361v2h-22.361z" transform="matrix(.894 -.447 .447 .894 -10.28 10.453)"/><path d="m25.82 45h22.361v2h-22.361z" transform="matrix(.447 -.894 .894 .447 -20.691 58.522)"/><path d="m6 9h2v2h-2z"/><path d="m6 13h2v2h-2z"/><path d="m8 11h2v2h-2z"/><path d="m4 11h2v2h-2z"/><path d="m3 21h2v2h-2z"/><path d="m3 25h2v2h-2z"/><path d="m5 23h2v2h-2z"/><path d="m1 23h2v2h-2z"/><path d="m19 13h2v2h-2z"/><path d="m19 17h2v2h-2z"/><path d="m21 15h2v2h-2z"/><path d="m17 15h2v2h-2z"/><path d="m15 3h2v2h-2z"/><path d="m15 7h2v2h-2z"/><path d="m17 5h2v2h-2z"/><path d="m13 5h2v2h-2z"/><path d="m53 52h2v2h-2z"/><path d="m53 56h2v2h-2z"/><path d="m55 54h2v2h-2z"/><path d="m51 54h2v2h-2z"/><path d="m49 42h2v2h-2z"/><path d="m49 46h2v2h-2z"/><path d="m51 44h2v2h-2z"/><path d="m47 44h2v2h-2z"/><path d="m37 56h2v2h-2z"/><path d="m37 60h2v2h-2z"/><path d="m39 58h2v2h-2z"/><path d="m35 58h2v2h-2z"/><path d="m34 35c0-2.757-2.243-5-5-5s-5 2.243-5 5c0 .427.07.835.172 1.231-1.378-.78-2.965-1.231-4.657-1.231-2.534 0-4.916.987-6.707 2.778l-5.894 5.894c-.589.589-.914 1.373-.914 2.207 0 1.271.766 2.362 1.858 2.849l-5.944 5.944c-.589.589-.914 1.373-.914 2.207 0 1.684 1.342 3.051 3.011 3.11.059 1.669 1.427 3.011 3.11 3.011.834 0 1.618-.325 2.207-.914l5.944-5.944c.487 1.092 1.578 1.858 2.849 1.858.834 0 1.618-.325 2.207-.914l5.894-5.894c1.791-1.791 2.778-4.173 2.778-6.707 0-1.693-.451-3.28-1.231-4.657.396.102.804.172 1.231.172 2.757 0 5-2.243 5-5zm-5-3c1.654 0 3 1.346 3 3s-1.346 3-3 3-3-1.346-3-3 1.346-3 3-3zm-4.192 17.778-5.894 5.894c-.212.211-.493.328-.793.328-.618 0-1.121-.503-1.121-1.121 0-.3.117-.581.328-.793l7.379-7.379-1.414-1.414-7.379 7.379-8 8c-.212.211-.493.328-.793.328-.618 0-1.121-.503-1.121-1.121 0-.3.117-.581.328-.793l9.379-9.379-1.414-1.414-9.379 9.379c-.212.211-.493.328-.793.328-.618 0-1.121-.503-1.121-1.121 0-.3.117-.581.328-.793l8-8 5.379-5.379 2-2-1.414-1.414-2 2-5.379 5.379c-.212.211-.493.328-.793.328-.618 0-1.121-.503-1.121-1.121 0-.3.117-.581.328-.793l5.894-5.894c1.414-1.413 3.293-2.192 5.293-2.192 4.127 0 7.485 3.358 7.485 7.485 0 2-.779 3.879-2.192 5.293z"/></g></svg>